<?xml version="1.0" encoding="UTF-8"?>
<svg id="Layer_2" data-name="Layer 2" xmlns="http://www.w3.org/2000/svg" viewBox="0 0 310.56 174.42">
  <defs>
    <style>
      .cls-1 {
        fill: #414042;
      }
    </style>
  </defs>
  <g id="Layer_1-2" data-name="Layer 1">
    <g>
      <g>
        <path class="cls-1" d="M1.04,29.47h7.98c.58,0,1.04-.47,1.04-1.04V11.31h52.6c.58,0,1.04-.47,1.04-1.04V1.04c0-.58-.47-1.04-1.04-1.04H1.04C.47,0,0,.47,0,1.04v27.38c0,.58.47,1.04,1.04,1.04Z"/>
        <path class="cls-1" d="M62.67,163.11H10.07v-17.11c0-.58-.47-1.04-1.04-1.04H1.04c-.58,0-1.04.47-1.04,1.04v27.38c0,.58.47,1.04,1.04,1.04h61.63c.58,0,1.04-.47,1.04-1.04v-9.23c0-.58-.47-1.04-1.04-1.04Z"/>
        <path class="cls-1" d="M309.51,0h-61.63c-.58,0-1.04.47-1.04,1.04v9.23c0,.58.47,1.04,1.04,1.04h52.6v17.11c0,.58.47,1.04,1.04,1.04h7.98c.58,0,1.04-.47,1.04-1.04V1.04c0-.58-.47-1.04-1.04-1.04Z"/>
        <path class="cls-1" d="M309.51,144.95h-7.98c-.58,0-1.04.47-1.04,1.04v17.11h-52.6c-.58,0-1.04.47-1.04,1.04v9.23c0,.58.47,1.04,1.04,1.04h61.63c.58,0,1.04-.47,1.04-1.04v-27.38c0-.58-.47-1.04-1.04-1.04Z"/>
      </g>
      <g>
        <path class="cls-1" d="M50.33,48h-15.53c-.57,0-1.03.44-1.03.99v76.32c0,.55.46.99,1.03.99h15.92c10.12,0,18.54-3.47,25.02-10.3,6.46-6.81,9.74-16.51,9.74-28.82s-3.23-21.7-9.59-28.65c-6.39-6.99-15-10.53-25.57-10.53ZM67.4,108.91c-4.19,5.17-9.74,7.68-16.96,7.68h-5.45v-58.86h5.45c7.18,0,12.72,2.54,16.93,7.76,4.21,5.22,6.35,12.53,6.35,21.7s-2.12,16.56-6.32,21.73Z"/>
        <path class="cls-1" d="M124.13,46.65c-1.8,0-3.41.68-4.78,2.03-1.36,1.34-2.05,2.94-2.05,4.75s.69,3.42,2.05,4.78c1.37,1.37,2.98,2.06,4.79,2.06,1.95,0,3.62-.66,4.95-1.97,1.33-1.31,2-2.94,2-4.86s-.68-3.46-2.03-4.78c-1.35-1.33-3-2-4.92-2Z"/>
        <path class="cls-1" d="M128.37,67.96h-25.86c-.57,0-1.03.44-1.03.99v7.3c0,.55.46.99,1.03.99h16.12v48.07c0,.55.46.99,1.03.99h8.71c.57,0,1.03-.44,1.03-.99v-56.36c0-.55-.46-.99-1.03-.99Z"/>
        <path class="cls-1" d="M188.54,81.32l30.19-31.62c.19-.18.3-.43.3-.7,0-.55-.46-.99-1.02-.99h-10.56c-.29,0-.56.12-.75.32l-33.19,34.7v-34.03c0-.55-.46-.99-1.03-.99h-9.16c-.57,0-1.03.44-1.03.99v76.32c0,.55.46.99,1.03.99h9.16c.57,0,1.03-.44,1.03-.99v-28.28l7.18-7.56,25.91,36.41c.19.27.51.43.84.43h11.56c.38,0,.73-.21.91-.53s.15-.72-.07-1.03l-31.31-43.43Z"/>
        <path class="cls-1" d="M265.08,119.1c.14,2.58.49,4.76,1.03,6.5.13.42.53.71.98.71h8.66c.31,0,.61-.14.81-.38s.26-.55.19-.85c-.94-3.73-1.42-8.05-1.42-12.85v-24.23c0-14.19-7.04-21.38-20.91-21.38-6.95,0-14.54,2.02-22.59,6-.46.23-.67.75-.5,1.23l2.29,6.06c.1.27.32.48.6.59.12.04.24.06.36.06.17,0,.33-.04.49-.12,2.34-1.22,5.2-2.3,8.48-3.19,3.26-.89,5.98-1.34,8.07-1.34,8.71,0,12.94,4.42,12.94,13.5v1.79l-8.83.68c-4.43.33-8.33.93-11.58,1.79-3.3.87-6.14,2.08-8.46,3.6-2.37,1.55-4.19,3.48-5.42,5.74-1.23,2.26-1.85,4.89-1.85,7.82,0,4.95,1.77,9.06,5.27,12.22,3.48,3.14,7.55,4.73,12.12,4.73,7.86,0,14.33-2.91,19.27-8.67ZM257.01,115.13c-2.88,1.68-5.8,2.53-8.69,2.53-2.6,0-4.66-.68-6.3-2.08-1.61-1.36-2.39-3.12-2.39-5.37,0-2.48.92-4.38,2.82-5.82,2.01-1.52,4.42-2.58,7.18-3.14,2.72-.55,7.75-1.16,14.93-1.8v8.81c-2.17,2.89-4.71,5.2-7.55,6.85Z"/>
      </g>
    </g>
  </g>
</svg>